<svg width="100" height="100" viewBox="0 0 100 100" fill="none" xmlns="http://www.w3.org/2000/svg">
  <defs>
    <linearGradient id="aiGradient" x1="0%" y1="0%" x2="100%" y2="100%">
      <stop offset="0%" style="stop-color:#8B5CF6;stop-opacity:1" />
      <stop offset="100%" style="stop-color:#3B82F6;stop-opacity:1" />
    </linearGradient>
  </defs>
  
  <!-- Circuit Board Pattern -->
  <rect width="100" height="100" rx="20" fill="url(#aiGradient)" opacity="0.2"/>
  
  <!-- Brain Icon -->
  <path d="M50 20 Q35 20 30 35 Q25 30 20 35 Q15 40 20 50 Q15 55 20 60 Q20 70 30 75 Q30 80 40 85 Q45 90 50 85 Q55 90 60 85 Q70 80 70 75 Q80 70 80 60 Q85 55 80 50 Q85 40 80 35 Q75 30 70 35 Q65 20 50 20 Z" 
        fill="url(#aiGradient)" 
        stroke="white" 
        stroke-width="2"/>
  
  <!-- Neural Network Nodes -->
  <circle cx="50" cy="40" r="4" fill="white"/>
  <circle cx="40" cy="50" r="4" fill="white"/>
  <circle cx="60" cy="50" r="4" fill="white"/>
  <circle cx="50" cy="60" r="4" fill="white"/>
  
  <!-- Connecting Lines -->
  <line x1="50" y1="40" x2="40" y2="50" stroke="white" stroke-width="2" opacity="0.6"/>
  <line x1="50" y1="40" x2="60" y2="50" stroke="white" stroke-width="2" opacity="0.6"/>
  <line x1="40" y1="50" x2="50" y2="60" stroke="white" stroke-width="2" opacity="0.6"/>
  <line x1="60" y1="50" x2="50" y2="60" stroke="white" stroke-width="2" opacity="0.6"/>
</svg>
